<svg width="21" height="17" viewBox="0 0 21 17" fill="none" xmlns="http://www.w3.org/2000/svg">
<path d="M20.2953 2.29878L18.8232 2.29871V0.773585C18.8232 0.424416 18.568 0.127756 18.2229 0.0760953C18.1627 0.067037 16.7286 -0.141446 15.0017 0.173048C13.0766 0.523633 11.5413 1.38821 10.5 2.69522C9.45859 1.38821 7.92327 0.523633 5.9982 0.173048C4.27126 -0.141375 2.83718 0.067037 2.77701 0.0760953C2.43196 0.127827 2.17671 0.424487 2.17671 0.773585V2.29871H0.704664C0.315565 2.29871 0 2.61455 0 3.00405V16.2947C0 16.523 0.110444 16.7372 0.296474 16.8696C0.482503 17.0019 0.720998 17.0359 0.936441 16.9607C0.98933 16.9424 6.26993 15.1387 10.2075 16.9363C10.3933 17.0212 10.6067 17.0212 10.7925 16.9363C14.719 15.1438 20.011 16.9425 20.0636 16.9607C20.1391 16.987 20.2173 17 20.2952 17C20.4396 17 20.5826 16.9556 20.7035 16.8696C20.8896 16.7373 21 16.5231 21 16.2947V3.00412C20.9999 2.61462 20.6844 2.29878 20.2953 2.29878ZM1.4094 15.351V3.70933H2.17671V13.1021C2.17671 13.307 2.2663 13.5017 2.42121 13.6356C2.57613 13.7696 2.78217 13.8297 2.98468 13.7997C3.02357 13.7941 6.08489 13.3734 8.32149 14.9093C5.5664 14.4378 2.80897 14.9832 1.4094 15.351ZM9.7953 14.2732C8.81021 13.3824 7.5271 12.78 5.9982 12.5016C5.26243 12.3676 4.57982 12.3285 4.03397 12.3285C3.87191 12.3285 3.72187 12.332 3.58618 12.3374V1.42126H3.58611C4.9405 1.36011 8.23522 1.50504 9.7953 4.15198V14.2732ZM11.2046 4.15205C12.7591 1.51644 16.059 1.36492 17.4138 1.42302V12.3374C16.8211 12.3135 15.9558 12.3278 15.0017 12.5016C13.4728 12.78 12.1897 13.3823 11.2046 14.2732V4.15205ZM12.6761 14.9097C14.913 13.3729 17.9759 13.794 18.0141 13.7997C18.2171 13.8302 18.423 13.7704 18.5784 13.6365C18.7338 13.5025 18.8232 13.3075 18.8232 13.1021V3.7094H19.5905V15.351C18.1905 14.983 15.432 14.4374 12.6761 14.9097Z" fill="#6C899E"/>
</svg>
